<?xml version="1.0" standalone="no"?>
<!DOCTYPE svg PUBLIC "-//W3C//DTD SVG 20010904//EN"
 "http://www.w3.org/TR/2001/REC-SVG-20010904/DTD/svg10.dtd">
<svg version="1.0" xmlns="http://www.w3.org/2000/svg"
 width="666.000000pt" height="666.000000pt" viewBox="0 0 666.000000 666.000000"
 preserveAspectRatio="xMidYMid meet">
<metadata>
Created by potrace 1.14, written by Peter Selinger 2001-2017
</metadata>
<g transform="translate(0.000000,666.000000) scale(0.100000,-0.100000)"
fill="#000000" stroke="none">
<path d="M3385 5477 c-163 -39 -281 -89 -387 -164 -59 -41 -154 -135 -268
-262 -41 -46 -86 -96 -100 -111 -14 -15 -54 -60 -90 -99 -36 -40 -78 -87 -95
-105 -16 -18 -61 -68 -100 -112 -38 -43 -83 -92 -100 -110 -16 -18 -55 -60
-85 -95 -30 -34 -68 -76 -83 -92 -16 -17 -56 -62 -90 -100 -75 -84 -81 -90
-187 -206 -47 -52 -92 -102 -102 -113 -36 -42 -155 -174 -188 -209 -19 -21
-62 -68 -95 -105 -114 -128 -160 -178 -200 -216 -61 -59 -169 -128 -249 -159
-73 -28 -90 -33 -181 -48 -55 -10 -220 -7 -276 4 -30 5 -41 2 -64 -17 -22 -19
-28 -33 -28 -65 0 -76 121 -290 220 -389 58 -58 228 -184 248 -184 3 0 29 -11
57 -25 29 -14 62 -27 73 -30 11 -2 44 -11 74 -19 53 -15 127 -27 183 -31 29
-1 52 -15 26 -15 -46 0 -149 -111 -168 -179 -39 -147 6 -271 128 -351 22 -14
21 -15 -30 -13 -75 3 -111 -11 -130 -50 -14 -29 -14 -38 1 -98 25 -98 87 -175
174 -214 82 -37 169 -41 272 -12 32 9 84 45 118 81 44 46 71 101 82 166 l8 45
13 -45 c71 -258 68 -254 209 -251 92 2 104 15 140 152 27 104 30 111 36 79 34
-169 61 -228 108 -231 130 -8 182 5 200 49 5 15 25 78 42 140 18 61 35 112 39
112 5 0 11 -11 14 -24 6 -26 68 -119 100 -151 12 -11 39 -34 61 -51 174 -135
452 -118 614 39 27 25 46 37 48 30 7 -19 74 -83 114 -109 49 -31 142 -57 204
-57 69 1 161 28 211 63 l41 29 12 -25 c20 -44 52 -51 214 -45 15 1 39 12 52
26 25 24 25 25 25 224 0 110 3 202 8 204 12 8 9 -570 -3 -582 -8 -8 -22 -5
-46 7 -28 14 -56 18 -129 16 -51 -1 -103 -8 -115 -14 -20 -11 -58 -83 -98
-185 l-15 -40 0 65 c1 107 -1 118 -25 146 -21 24 -31 27 -80 27 -44 0 -63 -5
-80 -20 -22 -20 -22 -20 -41 -2 -29 29 -118 30 -149 2 -12 -11 -21 -14 -25 -7
-33 50 -212 29 -212 -24 0 -12 -8 -8 -30 17 -28 32 -33 33 -100 34 -63 1 -73
-1 -97 -25 -26 -26 -26 -28 -27 -186 -1 -87 2 -173 6 -190 11 -42 45 -63 99
-62 62 2 88 2 134 2 22 -1 51 0 65 0 14 0 62 0 108 -2 92 -2 125 11 143 58
l11 27 13 -32 c21 -50 41 -55 222 -55 181 -1 202 5 226 55 l15 30 16 -31 c23
-44 45 -53 139 -54 85 -1 127 7 139 26 5 7 17 5 39 -8 29 -17 80 -22 159 -17
14 1 64 1 112 1 97 -1 121 7 143 50 9 17 18 30 21 30 3 0 3 -4 0 -8 -10 -16
40 -64 74 -71 79 -16 150 19 150 76 0 23 -117 312 -143 354 -23 37 -107 44
-154 13 -20 -13 -26 -13 -46 0 -12 9 -43 17 -67 19 l-44 4 -1 46 0 47 40 -6
c46 -7 111 -7 136 1 10 3 27 8 39 10 27 5 96 46 133 80 37 33 94 128 108 180
15 52 18 151 6 194 -5 18 -10 42 -12 53 -6 30 -53 105 -88 142 -75 77 -175
117 -277 110 -58 -3 -95 -10 -108 -18 -4 -2 -62 0 -127 6 -133 11 -130 11
-301 0 -120 -7 -154 -18 -154 -48 0 -17 -21 -29 -29 -17 -9 14 -86 52 -135 67
-73 22 -182 13 -257 -21 -37 -17 -69 -36 -73 -42 -13 -21 -31 -11 -54 32 -28
52 -54 81 -112 129 -48 39 -149 87 -184 89 -11 0 11 9 49 19 210 55 328 137
522 366 15 18 100 112 193 214 14 15 54 60 90 100 36 40 83 92 105 116 22 23
65 70 95 105 30 34 66 74 80 89 14 15 57 62 95 105 39 43 81 91 95 106 14 15
54 60 90 100 248 277 293 319 382 363 94 47 180 64 288 59 125 -6 132 -5 159
21 32 32 30 71 -8 151 -86 186 -243 327 -432 391 -62 21 -64 21 -144 33 -116
17 -289 -8 -393 -55 -110 -51 -225 -146 -339 -280 -23 -27 -59 -67 -80 -90
-21 -23 -69 -76 -108 -120 -38 -43 -79 -88 -90 -100 -11 -12 -54 -59 -95 -105
-41 -45 -86 -95 -100 -109 -14 -15 -52 -58 -85 -95 -33 -38 -69 -78 -80 -90
-25 -26 -87 -94 -185 -204 -41 -46 -86 -96 -100 -111 -14 -15 -57 -63 -95
-106 -106 -118 -152 -159 -224 -197 -120 -64 -250 -86 -375 -65 -70 12 -102
-4 -112 -58 -12 -62 67 -214 164 -318 45 -48 140 -119 207 -154 51 -27 161
-62 194 -62 33 0 17 -14 -34 -28 -22 -6 -65 -27 -97 -45 l-56 -34 -6 28 c-9
48 -43 61 -153 60 -93 -1 -99 -2 -123 -29 -18 -19 -32 -57 -50 -130 -13 -57
-27 -105 -30 -107 -4 -2 -20 48 -36 112 -36 144 -46 154 -151 154 -40 0 -81
-5 -92 -11 -17 -9 -55 -64 -50 -72 1 -2 -8 -48 -21 -103 l-23 -100 -23 90
c-40 154 -44 165 -69 181 -17 11 -48 16 -103 16 -95 0 -138 -8 -146 -28 -5
-13 -10 -13 -37 2 -18 9 -51 22 -73 29 -25 8 -33 14 -21 15 117 10 284 81 410
175 82 61 140 119 312 312 34 37 72 80 84 94 13 14 56 61 94 104 39 43 81 90
95 105 81 89 161 178 180 200 12 14 56 63 99 110 43 47 93 103 112 124 19 22
52 59 74 82 22 23 67 73 100 110 33 37 71 79 85 94 14 15 57 63 95 106 39 43
90 100 115 127 89 98 106 117 165 184 164 185 255 262 379 318 137 62 263 79
462 60 80 -7 81 -7 103 21 23 29 24 66 4 114 -27 61 -36 85 -37 91 -1 4 -25
43 -54 88 -99 153 -236 271 -405 351 -134 64 -219 83 -387 85 -80 1 -163 -2
-185 -8z m-313 -3363 c17 -9 40 -26 52 -38 35 -38 61 -46 147 -46 71 0 80 -2
69 -15 -7 -8 -9 -15 -6 -15 4 0 2 -9 -4 -19 -8 -17 -13 -38 -25 -111 -1 -10
-15 -15 -46 -16 -24 -1 -55 -2 -69 -3 -15 -1 -42 -16 -63 -36 -61 -57 -97 -67
-184 -49 -51 10 -110 89 -118 158 -14 109 65 206 167 206 27 0 63 -7 80 -16z
m-1386 -108 l14 -39 -35 34 c-41 40 -43 47 -14 45 16 -1 26 -12 35 -40z m2070
-85 c49 -48 26 -156 -37 -172 -60 -14 -109 31 -109 101 0 85 89 128 146 71z
m949 2 c51 -56 28 -156 -40 -175 -93 -25 -147 127 -66 189 29 22 78 15 106
-14z m-3272 -127 c22 -17 13 -46 -14 -39 -10 3 -19 9 -19 13 0 5 -3 15 -6 24
-8 20 14 21 39 2z"/>
<path d="M5513 4124 c-107 -22 -188 -69 -283 -165 -47 -47 -116 -121 -155
-164 -38 -43 -89 -99 -112 -124 -23 -25 -51 -57 -63 -71 -21 -25 -141 -157
-191 -211 -14 -15 -52 -58 -85 -95 -32 -36 -72 -81 -89 -99 -16 -18 -59 -65
-95 -105 -80 -90 -93 -103 -142 -136 -69 -49 -132 -64 -242 -60 -94 4 -100 3
-123 -20 -31 -31 -28 -78 11 -154 71 -138 171 -224 320 -276 120 -43 276 -35
396 19 93 43 154 95 290 248 36 40 74 83 85 95 11 12 49 54 85 94 36 40 79 87
95 105 17 17 62 67 100 110 39 44 88 99 110 123 22 25 51 57 64 71 226 251
261 285 327 316 62 29 150 43 214 34 98 -14 142 37 111 128 -82 242 -363 393
-628 337z"/>
</g>
</svg>
